<?xml version="1.0" standalone="no"?>
<!DOCTYPE svg PUBLIC "-//W3C//DTD SVG 20010904//EN"
 "http://www.w3.org/TR/2001/REC-SVG-20010904/DTD/svg10.dtd">
<svg version="1.0" xmlns="http://www.w3.org/2000/svg"
 width="700.000000pt" height="700.000000pt" viewBox="0 0 700.000000 700.000000"
 preserveAspectRatio="xMidYMid meet">
<metadata>
Created by potrace 1.14, written by Peter Selinger 2001-2017
</metadata>
<g transform="translate(0.000000,700.000000) scale(0.100000,-0.100000)"
fill="#000000" stroke="none">
<path d="M1240 6978 c-94 -64 -121 -183 -120 -543 1 -99 3 -214 5 -255 7 -153
16 -307 20 -355 2 -27 7 -90 10 -140 4 -49 8 -108 10 -130 2 -22 7 -76 10
-120 3 -44 8 -98 10 -120 3 -22 7 -71 10 -110 7 -83 14 -164 20 -220 2 -22 7
-71 10 -110 3 -38 8 -92 11 -120 6 -68 13 -138 19 -210 16 -174 22 -244 30
-320 2 -22 7 -76 11 -120 3 -44 7 -96 9 -115 9 -99 19 -284 19 -356 l1 -81
-51 -59 c-328 -384 -634 -994 -800 -1593 -42 -154 -43 -181 -5 -223 28 -32 32
-33 98 -31 37 0 82 4 98 7 38 8 285 20 285 14 0 -2 -17 -55 -38 -118 -21 -63
-37 -121 -36 -127 1 -7 2 -20 3 -28 0 -8 13 -28 29 -44 21 -23 64 -41 207 -87
99 -31 185 -60 190 -64 6 -4 23 -10 39 -14 28 -7 105 -36 301 -113 251 -99
579 -257 730 -351 70 -44 180 -116 185 -122 3 -3 21 -17 40 -32 19 -14 44 -34
55 -45 74 -68 175 -129 263 -158 28 -9 52 -21 52 -27 0 -25 51 -116 87 -154
69 -74 139 -117 248 -155 59 -20 89 -23 195 -23 109 0 135 4 205 28 93 31 174
81 228 139 44 47 83 109 92 149 6 22 18 31 70 48 66 22 164 78 212 120 96 85
328 250 351 250 5 0 15 7 22 15 7 8 16 13 20 10 5 -3 12 0 16 6 7 12 356 184
474 234 36 15 79 33 95 40 104 45 371 143 555 205 118 39 225 78 237 86 30 19
51 63 46 95 -2 14 -19 72 -38 129 -19 57 -35 106 -35 108 0 6 256 -6 290 -13
14 -3 53 -7 87 -9 60 -5 64 -3 98 28 42 40 44 67 15 177 -39 149 -142 461
-180 544 -5 11 -30 70 -56 130 -147 350 -375 731 -578 969 l-51 59 1 86 c1 91
14 333 19 341 1 3 6 55 10 115 4 61 8 117 10 125 2 8 6 53 10 100 3 47 8 101
10 120 2 19 6 67 10 105 3 39 7 84 9 100 2 17 6 66 10 110 4 44 9 96 11 115 5
50 16 168 20 215 4 53 15 180 20 230 2 22 7 76 10 120 4 44 8 98 10 120 2 22
6 81 10 130 3 50 8 108 10 130 2 22 7 99 11 170 3 72 7 164 9 205 6 109 5 425
0 495 -13 152 -47 244 -108 289 -43 32 -153 29 -229 -6 -190 -88 -317 -222
-722 -763 -245 -328 -241 -322 -355 -465 -177 -221 -360 -418 -517 -558 -50
-44 -64 -52 -89 -48 -154 24 -577 24 -710 0 -26 -5 -39 3 -104 63 -255 234
-443 454 -846 993 -276 369 -357 470 -465 578 -158 159 -257 216 -395 228 -52
5 -65 3 -95 -18z"/>
</g>
</svg>
